<svg width="204" height="200" viewBox="0 0 204 200" fill="none" xmlns="http://www.w3.org/2000/svg">
<path d="M20.0999 86.4985L22.2096 82.2791L25.6955 78.9036L32.3059 77.0752L33.2904 85.7953L18.2715 93.1089L20.0999 86.4985Z" fill="#42607A"/>
<path d="M196.848 78.2879L194.201 72.9582L189.827 68.6943L181.531 66.3848L180.296 77.3996L199.143 86.6379L196.848 78.2879Z" fill="#42607A"/>
<path d="M46.9334 155.556C48.2296 153.165 58.2321 142.382 62.5452 136.287L52.8406 129.255L33.572 155.556L19.226 179.888C18.2414 179.888 15.2597 179.269 11.2091 176.794C6.14581 173.699 1.67982 176.071 0.831539 179.888C-0.0123436 183.685 11.9123 187.623 19.226 188.608C26.5396 189.592 45.5762 158.06 46.9334 155.556Z" fill="#577E9F"/>
<path d="M99.1135 176.372C99.8167 175.246 102.489 160.9 102.489 157.947C105.021 152.133 110.084 144.22 113.459 156.259C117.679 171.308 104.177 191.28 105.583 190.577C106.99 189.874 113.6 189.452 117.96 192.265C121.448 194.515 116.976 198.359 114.303 200L96.3005 197.047L89.3196 196.486C89.3124 196.486 89.3054 196.485 89.2985 196.484L89.3196 196.486C90.0508 196.508 92.5402 192.961 93.2366 192.265C95.4604 190.041 98.4102 177.497 99.1135 176.372Z" fill="#577E9F"/>
<path d="M195.457 72.1522C192.419 66.9764 187.252 68.4016 185.893 69.058C191.94 67.5109 193.769 80.3097 195.457 82.982C196.807 85.1199 191.05 107.877 188.002 118.988C187.909 118.284 185.724 116.343 177.735 114.206C169.746 112.068 171.969 120.535 174.078 125.035L185.189 127.989C185.189 127.989 183.642 129.817 183.642 133.756C183.642 143.742 192.1 140.904 194.08 138.819C196.753 136.006 204.398 89.0498 203.052 86.3576C201.364 82.982 199.254 78.622 195.457 72.1522Z" fill="#577E9F"/>
<path d="M19.226 100.563C17.1163 94.7964 19.226 81.4349 29.4932 77.2155C17.3976 80.8723 18.7346 92.4054 13.8814 100.563C9.02823 108.72 19.226 136.287 23.4454 143.46C26.8209 149.199 32.7281 144.257 35.2597 141.069L31.8842 132.208C35.0253 131.224 40.9981 127.933 39.7604 122.644C38.5228 117.356 30.9934 120.441 27.3835 122.644C25.3676 117.206 20.9137 105.176 19.226 100.563Z" fill="#577E9F"/>
<ellipse cx="109.239" cy="78.7623" rx="81.9972" ry="78.7623" fill="#7BA2C3"/>
<path d="M83.756 31.4304C75.8797 24.5387 72.2745 9.61228 77.8746 6.61062C95.4554 -2.81273 141.447 -5.34437 169.154 25.3167C172.869 29.4277 176.442 33.5401 172.786 45.0732C169.129 56.6063 150.985 45.7764 139.452 40.1506C127.919 34.5247 122.153 39.8693 112.026 40.1506C101.899 40.4319 91.6322 38.3221 83.756 31.4304Z" fill="#2F634C"/>
<path d="M118.707 121.634C104.361 115.727 108.707 101.687 114.769 93.2238C122.223 82.8159 120.24 75.3868 118.707 72.9706C117.427 70.9555 108.721 63.4318 108.721 58.3433C108.721 49.6484 130.24 29.6514 149.93 53.8426C169.621 78.0339 154.18 105.67 149.93 112.352C145.979 118.565 133.053 127.542 118.707 121.634Z" fill="#FFDB00"/>
<path d="M33.0222 68.7368C29.3654 76.7536 27.0877 72.0115 28.2266 68.7368C31.3208 35.4433 61.2923 12.8999 64.5271 14.447C67.762 15.9942 66.9181 23.7297 66.9181 31.1841C66.9181 38.6384 54.4005 50.0307 46.9463 51.5778C39.492 53.1249 36.679 60.7199 33.0222 68.7368Z" fill="#B99F7E"/>
<path d="M124.993 130.38C114.416 129.029 105.49 134.13 102.349 136.849C93.2068 150.633 107.412 149.93 117.257 151.195C127.103 152.461 134.276 146.132 136.807 143.178C139.339 140.225 138.214 132.067 124.993 130.38Z" fill="white"/>
<ellipse cx="51.1529" cy="60.0564" rx="3.65682" ry="4.92264" fill="#111111"/>
<ellipse cx="51.1527" cy="60.7602" rx="1.96906" ry="2.53165" fill="#111111"/>
<path d="M82.375 64.2754C82.375 66.807 88.9854 74.6833 96.1584 66.807" stroke="black" stroke-width="4" stroke-linecap="round"/>
<path d="M66.0616 140.647C66.6242 143.601 66.7648 145.008 64.9364 145.008C32.5876 124.895 27.1803 90.9601 29.0715 90.0145C32.447 88.3268 34.9732 97.1875 36.807 97.1875C40.7452 97.1875 41.4484 92.1242 48.4808 93.5307C55.5131 94.9372 60.1544 102.673 66.0616 109.283C71.9688 115.894 67.6087 128.271 66.0616 132.49C64.5145 136.709 65.499 137.694 66.0616 140.647Z" fill="#D3C4C9"/>
<circle cx="134.274" cy="69.9013" r="5.76653" fill="#111111"/>
<ellipse cx="134.979" cy="70.4643" rx="2.53165" ry="2.67229" fill="#111111"/>
</svg>
